<?xml version="1.0" encoding="utf-8"?>
<!-- Generator: Adobe Illustrator 24.0.1, SVG Export Plug-In . SVG Version: 6.00 Build 0)  -->
<svg version="1.1" id="Слой_1" xmlns="http://www.w3.org/2000/svg" xmlns:xlink="http://www.w3.org/1999/xlink" x="0px" y="0px"
	 viewBox="0 0 154 147" style="enable-background:new 0 0 154 147;" xml:space="preserve">
<style type="text/css">
	.st0{fill:#D8D7F1;}
	.st1{stroke:#000000;}
	.st2{fill:none;stroke:#000000;}
	.st3{fill:#FFFFFF;stroke:#000000;}
	.st4{fill:none;stroke:#000000;stroke-width:1;stroke-miterlimit:4;}
	.st5{fill:none;stroke:#000000;stroke-width:1.2;}
	.st6{fill:none;stroke:#000000;stroke-width:4;}
	.st7{fill:#FFFFFF;stroke:#000000;stroke-width:1.2;}
	.st8{fill:none;stroke:#000000;stroke-width:1.2;stroke-linecap:round;}
	.st9{fill:#FFFFFF;}
</style>
<path class="st0" d="M11.2,21.3c-22,19.8-1.7,40.6,11.2,48.6l18.9,5c18.9,5,18.5-12.8,28.8-28.9c10.3-16-11.2-28.4-14.6-31.6
	C52,11.3,38.7-3.4,11.2,21.3z"/>
<path class="st0" d="M15.1,83.7c-12.1,11-0.9,22.6,6.2,27.1l10.4,2.8c10.4,2.8,10.2-7.1,15.9-16.1c5.7-8.9-6.2-15.8-8.1-17.6
	C37.6,78,30.2,69.9,15.1,83.7z"/>
<path class="st0" d="M46.8,115.9c-9.3,8.2-0.7,16.8,4.7,20.1l8,2.1c8,2.1,7.8-5.3,12.2-12c4.4-6.6-4.7-11.8-6.2-13.1
	C64,111.8,58.4,105.7,46.8,115.9z"/>
<path class="st1" d="M64.1,126.2c0,1.7-1.2,2.9-2.7,2.9c-1.5,0-2.7-1.3-2.7-2.9c0-1.7,1.2-2.9,2.7-2.9
	C62.9,123.3,64.1,124.6,64.1,126.2z"/>
<line class="st2" x1="32.7" y1="88" x2="31.7" y2="99.1"/>
<line class="st2" x1="23.1" y1="90.1" x2="31.1" y2="98.3"/>
<ellipse cx="22.8" cy="89.9" rx="2.9" ry="3.1"/>
<path class="st3" d="M35.1,87.9c-0.1,1.5-1.3,2.5-2.7,2.4c-1.4-0.1-2.3-1.4-2.2-2.9c0.1-1.5,1.3-2.5,2.7-2.4
	C34.2,85.1,35.2,86.4,35.1,87.9z"/>
<ellipse cx="31.6" cy="98.7" rx="2.9" ry="3.1"/>
<line class="st2" x1="40.8" y1="37.8" x2="53.8" y2="43.7"/>
<line class="st4" x1="39.4" y1="40.9" x2="35.7" y2="26.4"/>
<line class="st2" x1="29.7" y1="45.6" x2="41.6" y2="38.2"/>
<line class="st2" x1="46.3" y1="30.1" x2="53.3" y2="42.8"/>
<line class="st4" x1="45.2" y1="29.6" x2="58.8" y2="27.4"/>
<line class="st4" x1="39.5" y1="36.5" x2="42.8" y2="51.2"/>
<ellipse cx="40.3" cy="38.8" rx="3.9" ry="4.2"/>
<ellipse cx="52.9" cy="43.1" rx="3.9" ry="4.2"/>
<ellipse cx="58.3" cy="28.4" rx="3.9" ry="4.2"/>
<ellipse cx="31.6" cy="45.7" rx="3.9" ry="4.2"/>
<path class="st3" d="M48.8,28.5c1,1.8,0.4,4-1.2,5.1c-1.6,1-3.8,0.5-4.7-1.3c-1-1.8-0.4-4,1.2-5.1C45.7,26.2,47.9,26.7,48.8,28.5z"
	/>
<path class="st3" d="M38.9,23.8c1,1.8,0.4,4-1.2,5.1c-1.6,1-3.8,0.5-4.7-1.3c-1-1.8-0.4-4,1.2-5.1C35.8,21.5,37.9,22.1,38.9,23.8z"
	/>
<path class="st3" d="M45.3,47.9c1,1.8,0.4,4-1.2,5.1c-1.6,1-3.8,0.5-4.7-1.3c-1-1.8-0.4-4,1.2-5.1C42.2,45.5,44.3,46.1,45.3,47.9z"
	/>
<path d="M36.4,104.7c-0.2-0.1-0.5,0-0.6,0.3l-1.4,4.1c-0.1,0.2,0,0.5,0.3,0.6c0.2,0.1,0.5,0,0.6-0.3l1.3-3.6l3.6,1.3
	c0.2,0.1,0.5,0,0.6-0.3c0.1-0.2,0-0.5-0.3-0.6L36.4,104.7z M35.8,105.4c1.1,2.4,3.4,6.1,6.6,9.6c3.2,3.5,7.3,6.8,12,8.2l0.3-0.9
	c-4.5-1.4-8.5-4.5-11.6-8c-3.1-3.4-5.3-7.1-6.4-9.4L35.8,105.4z"/>
<path d="M32.6,55.1c-0.1-0.3-0.3-0.4-0.6-0.4L28,55.8c-0.3,0.1-0.4,0.3-0.4,0.6c0.1,0.3,0.3,0.4,0.6,0.4l3.6-1l0.8,3.8
	c0.1,0.3,0.3,0.4,0.6,0.4c0.3-0.1,0.4-0.3,0.4-0.6L32.6,55.1z M31.8,55c-1.4,2.3-3.2,6.3-4.4,11c-1.2,4.7-1.8,10.1-0.6,15.2l0.9-0.3
	C26.5,76,27,70.8,28.2,66.2c1.2-4.6,3-8.5,4.3-10.7L31.8,55z"/>
<path class="st2" d="M83.2,55.7l9.2-9.5c0.4-0.5,1.5-1.1,2.4,0c1,1.1,0.6,2.1,0,2.7c-0.3,0.3-3.7,4.2-7.9,8.9 M70,70.6l-9.8,11.9
	l-1.8,4.1l4.2-2c2.7-3,6.2-6.8,9.8-10.7"/>
<path class="st5" d="M132.6,87.8c1.6,5.8,10.3,33.8-4.3,29.4c-18.3-5.5-29.4-39.6-35.2-38.1c-0.8,3.2-3.6,9.9-8.7,11.1
	c-6.4,1.5-0.8,11.3,2.7,10.6c-0.1,3.9,15.7,29.7,25.4,33.5"/>
<path class="st5" d="M92.8,80.5c-0.6-1.5-2.1-4.6-2.7-4.9c-0.9,2-3.5,7.3-7.8,8.1l1.7,6.6"/>
<path class="st5" d="M74.2,72.6c0.2,0.5,2.4,5.4,4.6,4.5c2.2-0.9,4.3,4.5,4.3,6.4"/>
<path class="st5" d="M89.9,76.1c-0.7-1.6-1.8-6-1.5-12.5c0.3-6.5-5.1-8.3-8.1-8.2c-2.9-0.2-10.1,1.7-9.4,5.8"/>
<path class="st5" d="M78.9,58.3c-3,0.3-9.2,1.9-9.6,5.7c-0.4,4.8,1.7,0.1,7.2-2.1"/>
<path class="st5" d="M71,65.3c-1.1,1.4-2.6,4.7,0.3,6.4c0.5-1.4,2-4.4,4.5-4.9"/>
<path class="st5" d="M70.9,71.3C72.8,73.2,73,79,75,77c1.3-1.2-0.9-4.8-0.9-4.8"/>
<path class="st6" d="M132.6,79.2c-1.9,3.3-17.9,5.2-24.6-1.7"/>
<path class="st1" d="M131.5,55.9l-4.9,2.3c-4.9-12.5-13.8-4-17.1-8.5c-3.3-4.5-2.7-11.9,4-14.7c9.8-4.2,18-2.8,22.9,6.8
	C140.4,49.5,134.8,54.4,131.5,55.9z"/>
<path class="st7" d="M102.2,64.2c-0.9-2.6,4.4-11.6,7.1-15.8c4.5,0.9,8.3,1.1,10,0c5.1,0,6.1,1.9,6.9,4.5c0.6,2.4,0.1,4.6,0,5.7
	c2.4-1.1,7.5-6.6,8.6,0c1.4,8-3.8,4-6.5,4.4l1.7,14.4c-8.8,1.1-16.6-0.5-19.4-1.4V63L102.2,64.2z"/>
<path class="st8" d="M116.8,66c1.5,0.1,3.5-0.9,4.6-3.9"/>
<path class="st8" d="M121,62.8c-1.4,0.1-3.5,0.7-4.3,3.2"/>
<ellipse transform="matrix(0.5987 -0.801 0.801 0.5987 1.1846 113.9786)" cx="114.3" cy="55.8" rx="0.9" ry="1.7"/>
<ellipse transform="matrix(0.5987 -0.801 0.801 0.5987 -0.3419 110.7079)" cx="110.3" cy="55.7" rx="0.9" ry="1.7"/>
<path d="M142.9,26.4c7.9,4.5,7.4,15,4.5,17.6c-2.8,2.6-13,5.8-14.8-7.1c-7.9-0.7-12.1-10.5-4.5-16.7
	C133.8,15.3,139.8,18.6,142.9,26.4z"/>
<path class="st2" d="M130,77.3c8.7,4.8,25.5,22.8,22.6,56.5"/>
<path class="st2" d="M110.5,75.8c-2.8,1.4-7.2,5.7-10.7,9.3 M73.9,132.6c-0.9-9.4,12.1-21.8,14-28.8"/>
<ellipse transform="matrix(0.717 -0.6971 0.6971 0.717 9.9518 103.3347)" class="st9" cx="132.2" cy="39.4" rx="0.6" ry="11.2"/>
</svg>
