<?xml version="1.0" encoding="utf-8"?>
<!-- Generator: Adobe Illustrator 24.0.1, SVG Export Plug-In . SVG Version: 6.00 Build 0)  -->
<svg version="1.1" id="Слой_1" xmlns="http://www.w3.org/2000/svg" xmlns:xlink="http://www.w3.org/1999/xlink" x="0px" y="0px"
	 viewBox="0 0 177 147" style="enable-background:new 0 0 177 147;" xml:space="preserve">
<style type="text/css">
	.st0{fill:#D7F1EF;}
	.st1{fill:#FFFFFF;}
	.st2{fill:none;stroke:#000000;stroke-width:1.2;stroke-linecap:round;}
	.st3{stroke:#000000;}
	.st4{fill:none;stroke:#000000;stroke-width:1.5;stroke-linecap:round;}
	.st5{fill:#5DB0AA;stroke:#000000;stroke-width:1.2;}
	.st6{fill:none;stroke:#000000;stroke-width:1.2;}
	.st7{fill:none;stroke:#000000;stroke-width:1.5;}
</style>
<path class="st0" d="M92.3,92.7c-2.6,4.4-8.2,13.3-12.2,15.7c-5.1,3-7.1,2-13.3,4.1C61.9,114.1,25,124,7.1,128.7
	c1.5-10.6,16.3-33.3,63.2-39c8.7-1,15.9-2.1,21.9-3.2V92.7l19.4,1L111,82.1c7.8,5.1,14.8-8.3,24.1-7.6c14.3,1,47.4,36.5,39.3,51.2
	c-6.5,11.8-24.8,15.4-33.2,15.7l-29.6-47.6L92.3,92.7z"/>
<path class="st1" d="M77.8,108.8c4-1.1,14-2.5,22.4,0.8c10.5,4.2,21.1,13.1,30.5,14h3.6c2.2,3.2,6.4,11.3,5.8,17.4
	c-39.6-0.3-118.3-0.4-136.9,1c0,0,0,0,0,0l-0.5,0c-0.9,0.1-0.8,0,0,0c-0.8-4.3,2.3-11.5,4.3-13.3c4.1-2.5,11.4,0,32.6-12.3
	c3.1-1.6,12.5-4.4,26-3.4C68,112,73.8,109.6,77.8,108.8z"/>
<path class="st2" d="M111.9,93.4c0.4,0.4,1.2,1.9,1.9,4.7c0.9,3.4,16.4,23.9,16.9,25.6 M130.7,123.7c-9.4-0.8-20.1-9.7-30.5-14
	c-8.4-3.4-18.4-2-22.4-0.8c-3.9,0.8-9.7,3.1-12.2,4.2 M130.7,123.7h3.6c2.2,3.2,6.4,11.3,5.8,17.4 M130.7,123.7
	c-8,1.4-33.3,2.8-40.3-2.3c-11-7.9-16.4-11.4-24.8-8.3 M140.1,141h2.1 M140.1,141c-39.9-0.3-119.7-0.4-137.4,1 M2.7,142
	c-1.1,0.1-0.7,0,0.5,0L2.7,142z M2.7,142c-0.9-4.3,2.3-11.5,4.3-13.3c4.1-2.5,11.4,0,32.6-12.3c3.1-1.6,12.5-4.4,26-3.4"/>
<path class="st3" d="M102.2,64.9c-3.8,3.4-11.9,7.9-13.2,1.7c-0.2,0.1-2.8-9.4,2.3-13c5.1-3.6,14.5,0.7,14.5,3.1
	c9.7-2.2,6.1,12.1,6.7,17.3c-0.9,0.2-3.8,2.7-4.9,3c0.3-1.9-0.3-4.4-0.8-5.1C102.4,68.2,101.9,65.7,102.2,64.9z"/>
<path class="st2" d="M54.7,128.7c-1.3-2.9-6.6-7.5-17.7-3c-13.9,5.7-16.6,8.1-21.1,7.6"/>
<path class="st2" d="M53.4,133c-2.3-1.3-8.2-3.5-12.8-1.3"/>
<path class="st2" d="M6.8,137.7c3.4,0.6,9.1,1.2,19.6-1.4c8.2-2,20.6-0.6,26.2,1.5"/>
<path class="st2" d="M62,127.6c1.1-2.9,5.8-7.6,15.5-3c12.1,5.7,14.6,8.1,18.5,7.7"/>
<path class="st2" d="M63.3,132.3c2-1.5,7-3.8,10.9-1.4"/>
<path class="st4" d="M104.6,136.7c-3,0.5-8,1-17.1-1.2c-7.2-1.7-18-0.5-23,1.2"/>
<path class="st5" d="M99.3,96c-5.1,6.9-8.5,2.8-9.3,0.4l3-3.6l6.7,1.2c11.5,1.2,11.2-0.5,12.1,0c1,0.5,1.6,3.4,1.8,4.8
	C106.1,105,100.5,99.9,99.3,96z"/>
<path class="st6" d="M84.4,81.6c-0.9-2.4,4.3-10.6,7-14.4c4.4,0.8,8.8-0.9,10.5-1.9c-0.4,1.7,2.3,4.4,4.5,6.4
	c1.7,1.5,1.8,3.9,1.7,4.9c2.3-1,7.4-6,8.5,0c1.4,7.3-3.8,3.7-6.4,4l1.7,13.1c-8.7,1-16.4-0.4-19.2-1.3V80.6L84.4,81.6z"/>
<path class="st2" d="M98.9,83.3c1.4,0.1,3.2-0.7,4.3-3"/>
<path class="st7" d="M92.7,92.1c-3.5,5.4-11.4,16.2-14.9,16.7"/>
<path class="st6" d="M104.6,124.5c1.1,4.9,3.6,14.5,3.1,16.3"/>
<path class="st2" d="M54.9,140.4c1.1-3,3.2-9.3,3.2-11.5c0.8,3.8,3.2,11.1,4.9,11.5 M66.7,113c-9.3,4.2-8.6,11.9-8.6,16.3
	c0.2-4.8-4.5-16.3-18.9-12.7"/>
<path class="st6" d="M40.5,54.2c1.8,3.2,3.4,9.2-3.9,7.6c-9.2-2.1-27.6-9-11.8-26.2C40.5,18.3,52.4,0.4,58.9,13.5
	S22.1,45.2,26.7,26.6s23-34.5,15.1-6.2C34,48.6,5.7,52.1,13.6,38.3C21.5,24.5,42.5,19,34,40.4S15.5,79,20.2,63.1
	c4.6-15.9,2-24.8,11.2-13.1c9.1,11.7,18.4,11.7,10.5,15.2c-7.9,3.4-23.7-2.8-11.8-9c17.1-23.4,51.3-15.9,26.3-9.6S34.8,10,43.8,18.3
	c9,8.3,41.4,66.2,19.7,56.5c-21.7-9.6,0.7-40.7,7.9-28.3s-28.3,21.4-26.3,7.6c2-13.8,22.3-50.3,21.7-31c-0.7,19.3-48.6,37-36.8,15.2
	c11.8-21.9,36.8,19.3,21.7,26.9C36.6,72.8,39.2,45.9,50.4,50C59.3,53.3,47.5,54.2,40.5,54.2z"/>
<ellipse transform="matrix(0.9654 -0.2609 0.2609 0.9654 -15.9712 28.2276)" cx="98.3" cy="74.3" rx="0.6" ry="1.8"/>
<ellipse transform="matrix(0.9654 -0.2609 0.2609 0.9654 -16.0553 27.5937)" cx="95.9" cy="74.3" rx="0.6" ry="1.8"/>
</svg>
