<?xml version="1.0" encoding="utf-8"?>
<!-- Generator: Adobe Illustrator 24.0.1, SVG Export Plug-In . SVG Version: 6.00 Build 0)  -->
<svg version="1.1" id="Слой_1" xmlns="http://www.w3.org/2000/svg" xmlns:xlink="http://www.w3.org/1999/xlink" x="0px" y="0px"
	 viewBox="0 0 154 147" style="enable-background:new 0 0 154 147;" xml:space="preserve">
<style type="text/css">
	.st0{fill:#F1EDD7;}
	.st1{fill:none;stroke:#000000;stroke-linecap:round;}
	.st2{stroke:#000000;}
	.st3{fill:none;stroke:#000000;}
	.st4{fill:none;stroke:#000000;stroke-width:1.2;}
	.st5{fill:#FFFFFF;stroke:#000000;stroke-width:1.2;}
	.st6{fill:#EAA800;}
	.st7{fill:#FFFFFF;stroke:#FFFFFF;stroke-width:0.2;}
</style>
<ellipse transform="matrix(0.9659 -0.2588 0.2588 0.9659 -13.397 16.2634)" cx="55.1" cy="59" rx="0.6" ry="1.8"/>
<ellipse transform="matrix(0.9659 -0.2588 0.2588 0.9659 -13.6261 15.5706)" cx="52.3" cy="59.5" rx="0.6" ry="1.8"/>
<path class="st0" d="M63.4,81.8c8.6,2.6,16.1,12.4,18.7,17c6.6,0-7.2-20.1-4.2-21.7c10.4-5.3,3.1-36-1.4-43.7
	c-9-15.6-43.3-26.1-61.7-4.6c-33.8,39.6,7.8,71.9,14.9,65.7c7-6.1,15.9-8.5,15.4-9.4c-0.4-0.8,1.1-4.7,1.9-6.6l-2.5-12.2l-7.1,0.5
	l-0.7-5.2l1.9-3.8l5.6-7.1L55.9,53l10.8,6.1l-9.8,5.7l2.8,12.3L63.4,81.8z"/>
<ellipse transform="matrix(0.9659 -0.2588 0.2588 0.9659 -13.397 16.2634)" cx="55.1" cy="59" rx="0.6" ry="1.8"/>
<ellipse transform="matrix(0.9659 -0.2588 0.2588 0.9659 -13.6261 15.5706)" cx="52.3" cy="59.5" rx="0.6" ry="1.8"/>
<path class="st1" d="M113,51.7c11.5-2.6,7.9-6.9,4.4-6.6c-2.1,0.2-4.3,3.9,3.6,4.3s9.4-3,8.7-5.4c-1-3.3-8.1-1.4-3.6,3.1
	c4.9,4.9,12.7,0.1,14.4-4.2c2.6-6.5-6.6-5.3-7.2-0.1c-0.8,6.6,7.8,7.5,12.9,4.4"/>
<path class="st1" d="M116.5,65.8c9.4-2.2,6.5-5.7,3.6-5.4c-1.7,0.2-3.6,3.2,2.9,3.5c6.5,0.4,7.7-2.5,7.1-4.4c-0.8-2.7-6.7-1.2-3,2.5
	c4.1,4.1,10.4,0.1,11.8-3.4c2.2-5.3-5.4-4.4-5.9,0c-0.6,5.4,6.4,6.1,10.6,3.6"/>
<path class="st1" d="M117.7,80.6c8-1.8,5.5-4.8,3-4.6c-1.5,0.1-3,2.7,2.5,3c5.5,0.3,6.5-2.1,6-3.7c-0.7-2.3-5.6-1-2.5,2.1
	c3.4,3.4,8.8,0.1,10-2.9c1.8-4.5-4.5-3.7-5,0c-0.5,4.6,5.4,5.2,8.9,3"/>
<path class="st2" d="M51.6,65.8c0,0.5-0.2,0.8-0.4,1.1c-0.2,0.3-0.5,0.4-0.7,0.3c-0.2,0-0.5-0.2-0.7-0.5c-0.2-0.3-0.3-0.7-0.2-1.2
	c0-0.5,0.2-0.8,0.4-1.1c0.2-0.3,0.5-0.4,0.7-0.3c0.2,0,0.5,0.2,0.7,0.5C51.5,64.9,51.6,65.3,51.6,65.8z"/>
<path class="st3" d="M61.9,85.6c3.1-1.5-0.6-5.8-2.4-7.7c-1,0-7.7,1.6-12.5,1.9c-1.9,4.2-1.8,6.7-1,7.2c4.3,3.8,8-2.6,7.7-5.3
	C54.2,83.6,58.1,87.5,61.9,85.6z"/>
<path class="st4" d="M57.1,64.9l2.4,13L47,79.8l-2.4-14.4C41.8,67,36.2,68.6,37,62c0.8-6.5,5.8-3.4,8.2-0.2c0,0-0.4-8.7-0.1-10.6
	c3.1,0.8,8.5-2,9.5,1.8l12.1,7.1L57.1,64.9z"/>
<path class="st4" d="M45.4,86c-7.5,5.2-28,9.1-20.6,35.4"/>
<path class="st4" d="M85.3,114.9c1.2-10,4.7-8.3,5.5-11.3c1.5-5.3,2.7-19.1,5.1-19.5c2.4-0.4,4.5-2.7,10.1-0.6
	c4.4,1.6,1.9,5.2,0,6.8c0.9,0.6,2,2.7-1.1,6.2c-0.1,4.6-1.3,17-5.5,29.6"/>
<path class="st3" d="M97.5,77.3c-0.8,0.7-0.8,4.5-0.7,6.3c2.6-1.8,6.5-1.3,8.2-0.7c0.4-1.8,1.1-5.4,0.6-5.5
	C104.9,77.4,98.6,76.4,97.5,77.3z"/>
<path d="M99.2,68.8L99,68.4L98,69l1,0.4L99.2,68.8z M103.1,71.9c0,0.3,0.2,0.5,0.4,0.6c0.3,0,0.5-0.2,0.6-0.4L103.1,71.9z
	 M97.8,77.4c-0.9-1.1-2.2-3-2.9-5c-0.7-2-0.6-3.8,0.7-4.8L95,66.8c-1.9,1.5-1.7,3.8-1,5.9c0.7,2.1,2.1,4.2,3.1,5.3L97.8,77.4z
	 M95.6,67.6c2-1.6,3.6-2.6,4.8-3c1.3-0.5,2.2-0.4,2.9,0l0.5-0.9c-1.1-0.6-2.3-0.6-3.8-0.1c-1.4,0.5-3.1,1.6-5.1,3.2L95.6,67.6z
	 M103.4,64.5c0.2,0.1,0.2,0.2,0.2,0.2c0,0,0,0.1,0,0.2c-0.1,0.3-0.4,0.6-0.9,1.1c-1,0.9-2.5,1.8-3.6,2.4l0.5,0.9
	c1.1-0.6,2.7-1.6,3.8-2.5c0.5-0.5,1-1,1.2-1.5c0.1-0.3,0.2-0.6,0-0.9c-0.1-0.3-0.4-0.6-0.7-0.7L103.4,64.5z M99.1,69.3
	c0.6,0.2,1.6,0.5,2.6,1c0.5,0.2,0.9,0.5,1.1,0.8c0.2,0.3,0.3,0.5,0.3,0.8l1,0.1c0.1-0.7-0.2-1.2-0.6-1.6c-0.4-0.4-0.9-0.8-1.4-1
	c-1-0.5-2.3-0.8-2.7-1L99.1,69.3z"/>
<path d="M109.6,68.4l0.5-0.1L109.6,68.4z M105.2,59.8l-0.3-0.4l-0.1,0l0,0.1L105.2,59.8z M105.5,64.6l0.5-0.2l0,0l0,0L105.5,64.6z
	 M106.8,68.7c0.2,0.2,0.5,0.2,0.7,0c0.2-0.2,0.2-0.5,0-0.7L106.8,68.7z M105.6,78.1c1.1-1.1,5.3-4.4,4.5-9.8l-1,0.2
	c0.7,4.8-2.9,7.6-4.2,8.9L105.6,78.1z M110.1,68.3c-0.4-2.8-1.1-5.3-1.9-6.9c-0.4-0.8-0.9-1.5-1.4-1.9c-0.3-0.2-0.6-0.3-0.9-0.4
	c-0.3,0-0.7,0.1-1,0.2l0.6,0.8c0.1-0.1,0.2-0.1,0.3-0.1c0.1,0,0.2,0.1,0.4,0.2c0.3,0.3,0.7,0.8,1.1,1.5c0.8,1.5,1.4,3.9,1.8,6.6
	L110.1,68.3z M104.8,59.5c-0.3,0.3-0.4,0.8-0.5,1.2c-0.1,0.4-0.1,0.9,0,1.4c0.1,1,0.4,2.1,0.7,2.8l0.9-0.4c-0.3-0.6-0.5-1.5-0.6-2.4
	c0-0.5,0-0.9,0-1.2c0-0.4,0.1-0.6,0.2-0.7L104.8,59.5z M105,64.8c0.2,0.5,0.5,1.3,0.8,2.1c0.2,0.4,0.3,0.7,0.5,1
	c0.1,0.3,0.3,0.6,0.5,0.8l0.7-0.7c-0.1-0.1-0.2-0.2-0.3-0.5c-0.1-0.3-0.3-0.6-0.4-1c-0.3-0.7-0.6-1.5-0.8-2L105,64.8z"/>
<path class="st4" d="M104.8,61.5c-0.3-0.9-1.1-3.8-2.5-2.9c-1,0.7-0.8,4.4-0.5,4.9"/>
<path class="st4" d="M102,64c-0.3-1.8-2.2-7.6-3.7-6.1c-1.4,1.5,0,4.8,1.1,6.8"/>
<path class="st5" d="M91.7,51.4c-2.2-0.1,2,10.1,3.9,15.7l3.1-2.4C97.2,60.9,93.9,51.5,91.7,51.4z"/>
<path class="st2" d="M61.6,49.1c0.3,0.3,1.1,0.9,1.8,0.8c0.7-0.2-1.4-1.6-2.6-2.3c0.7,0,2.1,0,2.6,0.3c0.1,0.1,0.1,0.2,0.2,0.1
	c0,0,0,0,0,0c0.1,0.2,0.1,0,0-0.3c-0.2-1-1.5-4.5-2.9-5.4l2.6-0.3c-1.1-1.8-4.3-5.1-8.2-3.4l1.5-2c-0.9-0.4-3.4-0.8-5.7,1.1l0-1.3
	c-0.5-0.4-2.1-0.6-4.2,2.2c-1.4-1.5-4.7-1.7-6.4,9.6c-0.4-0.1-1.3-0.2-2,0.2c-0.7,0.4,0.8,0.8,1.7,1c0.3,0,0.6,0.2-1.1,0.6
	c-1.7,0.4-0.3,0.5,0.5,0.6c-0.9,0.2-2.5,0.8-1.9,1.2c0.6,0.4,1.5-0.1,1.9-0.4c-1,2-1.4,6.7,5.7,11c-0.5-9,1-11.3,6.2-9.7
	c5.4,1.6,7.7-0.4,11.9,0.9C63.3,52.3,62.7,51.2,61.6,49.1z"/>
<path class="st3" d="M29.2,95.4l-6.1-67.7l129.1-2.9L150,95.4h-42.5h-1"/>
<path class="st4" d="M62.7,82.2c8.6,3.7,25.1,15.5,22.3,33"/>
<path class="st4" d="M55.1,89.7c2.3,3.1,7.1,13.2,7.5,28.3"/>
<circle cx="63.6" cy="121.8" r="0.9"/>
<circle class="st6" cx="90.9" cy="42" r="6.6"/>
<path class="st5" d="M51,99.7h42.3c1.6,0,2.9,1.3,2.9,2.9v30c0,1.6-1.3,2.9-2.9,2.9H51c-1.6,0-2.9-1.3-2.9-2.9v-30
	C48.1,100.9,49.4,99.7,51,99.7z"/>
<circle class="st3" cx="73" cy="117.4" r="2.4"/>
<path class="st7" d="M87.1,43.4L87.1,43.4l2.4,1.8c0,0,0,0,0,0c0.1,0.1,0.2,0.1,0.3,0.1c0.1,0,0.2-0.1,0.3-0.1v0l5.2-5.3
	c0.2-0.2,0.2-0.4,0-0.6l-0.1,0.1l0.1-0.1c-0.2-0.1-0.5-0.1-0.6,0.1l0,0l-4.9,4.9l-2-1.5c-0.2-0.1-0.5-0.1-0.6,0.1
	C86.9,43,86.9,43.3,87.1,43.4z"/>
</svg>
