<?xml version="1.0" encoding="utf-8"?><svg width="154" height="147" viewBox="0 0 154 147" fill="none" xmlns="http://www.w3.org/2000/svg">
<path d="M109.98 99.9383L108.844 101.084L100.894 90.7749C105.058 83.3296 112.365 67.2936 110.548 62.7119C108.731 58.1302 103.544 63.4756 100.894 66.7209L99.1899 68.4391C99.9471 63.0938 98.9776 50.6263 91.2391 41.5216C87.8316 37.5126 85.5599 42.4762 87.8316 48.3942C84.424 45.5306 80.4486 41.5216 78.7448 43.2398C76.5144 45.489 78.0075 48.2112 79.4628 49.78C79.8372 50.0949 80.1735 50.4076 80.4486 50.685C80.1564 50.464 79.8107 50.1549 79.4628 49.78C77.7761 48.3608 75.3167 46.8944 74.2013 48.3942C72.8383 50.2268 74.012 52.5941 74.7692 53.5486C73.8229 53.1668 71.9301 52.6322 71.9301 53.5486C71.9301 54.694 71.3622 48.9669 66.8189 50.685C65.8723 49.5396 63.2978 47.5924 60.5718 48.9669C57.8458 50.3414 59.4359 51.4486 60.5718 51.8304C57.7322 50.8759 53.7568 53.7777 60.5718 73.0208C59.2467 71.4936 56.2557 68.6682 54.8927 69.5845C53.5297 70.5009 54.3248 74.1662 54.8927 75.8844L62.2751 90.7749L54.8927 98.7929L52.6205 99.9383L36.7188 111.393C24.9819 106.811 5.59706 91.4621 21.953 66.7209C9.64826 49.1578 -4.17088 12.4278 38.9907 6.01346C92.9427 -2.00452 100.894 -2.00447 125.314 6.0135C149.734 14.0315 147.717 54.501 142.919 69.5845C133.265 99.9382 116.985 93.2566 109.98 99.9383Z" fill="#F1E1D7"/>
<path d="M74.8917 71.3883C74.8917 56.3226 69.5777 54.6431 72.896 53.8135C77.044 52.7765 83.9573 69.0227 83.9573 78.0099C83.9573 86.9972 84.9943 94.6018 81.192 102.552C78.1501 108.912 71.8591 114.65 69.0938 116.724" stroke="black" stroke-width="1.2" stroke-linecap="round"/>
<path d="M75.312 54.8506C74.1598 52.6614 72.5467 48.283 75.312 48.283C78.4752 48.283 83.608 55.1962 84.6449 62.8008" stroke="black" stroke-width="1.2" stroke-linecap="round"/>
<path d="M79.8105 51.3939C78.8887 49.0895 76.7916 45.7375 78.7735 43.7893C81.3496 41.257 91.5631 50.3569 92.2544 63.4921" stroke="black" stroke-width="1.2" stroke-linecap="round"/>
<path d="M99.5161 68.6772C99.5161 54.505 93.6685 40.6784 89.4918 40.6785C85.6569 40.6785 87.3026 46.3243 87.7635 48.9744L89.8375 53.8137M95.7138 75.2448C98.0182 70.5208 103.941 61.0726 109.195 61.0726C114.028 61.0726 106.362 79.2073 100.887 90.454M99.5161 93.2193C99.9499 92.3608 100.41 91.4336 100.887 90.454M100.887 90.454L108.614 100.941" stroke="black" stroke-width="1.2" stroke-linecap="round"/>
<path d="M81.1982 102.898C83.3874 106.47 88.1806 114.167 89.8398 116.379" stroke="black" stroke-width="1.5"/>
<path d="M88.7959 117.071C98.4745 113.476 106.886 104.281 109.881 100.133C113.799 103.244 122.049 110.71 123.708 115.688C125.782 121.91 108.844 135.045 103.314 132.971C98.8893 131.312 91.7917 121.679 88.7959 117.071Z" stroke="black" stroke-width="1.2"/>
<path d="M123.717 115.342C126.943 115.227 135.193 118.107 142.383 130.551C143.65 127.44 147.568 123.707 153.098 133.662" stroke="black" stroke-width="1.2" stroke-linecap="round"/>
<path d="M104.012 133.317C104.062 135.431 104.192 140.927 104.312 146" stroke="black" stroke-width="1.2"/>
<path d="M1 129.86C3.41965 126.749 8.74287 120.873 10.6786 122.255C13.0982 123.984 13.0982 128.131 13.7896 128.131C14.4809 128.131 19.6658 107.392 27.2704 116.379C28.3933 113.973 31.336 110.897 35.912 112.047M35.912 112.047C37.9102 112.549 40.2198 113.857 42.8253 116.379C51.3978 124.675 53.5409 132.049 53.5409 134.699C58.6106 131.012 68.8192 122.601 69.0957 118.453C69.4192 113.601 65.8075 100.878 54.5779 99.8314M35.912 112.047L52.1582 99.7871C53.0014 99.7427 53.8076 99.7596 54.5779 99.8314M54.5779 99.8314L62.2628 91.8368M64.2565 89.7628L62.2628 91.8368M62.2628 91.8368C58.3185 84.3474 51.2191 72.1061 54.5779 70.4057C58.3925 68.4744 66.2848 82.1499 64.2565 79.0473C59.4172 70.6361 52.2965 53.5373 59.7628 52.4312" stroke="black" stroke-width="1.2" stroke-linecap="round"/>
<path d="M65.2949 69.7144L60.1099 52.0855C59.7643 51.0485 59.073 49.182 61.8383 48.6289C64.0439 48.1878 65.6631 49.9164 66.5206 51.3942M70.1342 69.023L67.7146 54.8508C67.3689 53.1225 66.7381 51.7692 66.5206 51.3942M66.5206 51.3942C67.7251 50.242 70.5908 49.8663 72.0256 53.4534" stroke="black" stroke-width="1.2" stroke-linecap="round"/>
<path d="M86.4609 99.1795C86.6914 98.6034 87.6362 97.5895 89.5719 98.1425" stroke="black" stroke-linecap="round"/>
<path d="M73.9325 99.3229C74.5479 99.6486 75.97 99.883 76.7349 98.2146" stroke="black" stroke-linecap="round"/>
<line x1="44.7695" y1="47.8523" x2="41.1721" y2="44.2549" stroke="#CD6D31" stroke-linecap="round"/>
<line x1="58.6711" y1="27.3682" x2="53.8168" y2="15.5025" stroke="#CD6D31" stroke-linecap="round"/>
<line x1="123.101" y1="49.105" x2="126.573" y2="46.79" stroke="#CD6D31" stroke-linecap="round"/>
<line x1="0.5" y1="-0.5" x2="13.3202" y2="-0.5" transform="matrix(0.378645 -0.925542 -0.925542 -0.378645 112.913 29.5874)" stroke="#CD6D31" stroke-linecap="round"/>
<line x1="0.5" y1="-0.5" x2="13.3202" y2="-0.5" transform="matrix(0.0179225 -0.999839 -0.999839 -0.0179225 86.708 28.6685)" stroke="#CD6D31" stroke-linecap="round"/>
</svg>
