<?xml version="1.0" encoding="utf-8"?>
<!-- Generator: Adobe Illustrator 24.0.1, SVG Export Plug-In . SVG Version: 6.00 Build 0)  -->
<svg version="1.1" id="Слой_1" xmlns="http://www.w3.org/2000/svg" xmlns:xlink="http://www.w3.org/1999/xlink" x="0px" y="0px"
	 viewBox="0 0 154 147" style="enable-background:new 0 0 154 147;" xml:space="preserve">
<style type="text/css">
	.st0{fill:#D9EAE2;}
	.st1{fill:none;stroke:#000000;stroke-width:1.2;}
	.st2{fill:none;stroke:#000000;}
	.st3{fill:#FFFFFF;stroke:#000000;}
	.st4{fill:#FFFFFF;stroke:#000000;stroke-width:1.2;}
	.st5{stroke:#000000;}
	.st6{fill:#FFFFFF;}
</style>
<path class="st0" d="M29.1,38c-11.8,16.2,7.5,30.8,18.6,36.1c9.2,2,54.7-0.8,69.2,12c14.2,12.6,3.9-33.4,12.3-52.5
	c8.3-19.2-42.2-24.1-60.3-29S43.8,17.7,29.1,38z"/>
<path class="st1" d="M84.9,138.9c0,0.1,0,0.2-0.2,0.3c-0.1,0.2-0.4,0.3-0.7,0.5c-0.7,0.4-1.7,0.7-3,1c-2.6,0.6-6.3,1-10.3,1
	c-4,0-7.7-0.4-10.3-1c-1.3-0.3-2.3-0.7-3-1c-0.3-0.2-0.6-0.4-0.7-0.5c-0.1-0.2-0.2-0.3-0.2-0.3c0-0.1,0-0.2,0.2-0.3
	c0.1-0.2,0.4-0.3,0.7-0.5c0.7-0.4,1.7-0.7,3-1c2.6-0.6,6.3-1,10.3-1c4,0,7.7,0.4,10.3,1c1.3,0.3,2.3,0.7,3,1
	c0.3,0.2,0.6,0.4,0.7,0.5C84.8,138.7,84.9,138.8,84.9,138.9z"/>
<path class="st2" d="M96.9,94.7c2.8-5.3,1.3-16.7,0.1-21.8c3.9,1.7,11.9,8.8,13,23.9c1.1,15.1-7.6,26.8-12,30.8
	c0.5-4-0.4-17.7-0.9-24l1.2-0.3l0.6-4.3C97.3,97.9,96.9,95.7,96.9,94.7z"/>
<path class="st3" d="M96.4,85.9l0.3-13c13.1-3.2,19.3,2.1,20.7,5.1C108.6,75.5,99.7,82.2,96.4,85.9z"/>
<path class="st4" d="M47.4,70.6c0.7-2.9,3.4-4.5,4.7-4.9h40.2l3.3,4.9c5,6.2-4.3,37.7-9.4,47.5c-4.5,9.7-19,15.3-28.7,0
	C45.5,99,46.5,74.2,47.4,70.6z"/>
<path class="st2" d="M47.1,94.7C44.3,89.5,45.9,78,47,72.9c-3.9,1.7-11.9,8.8-13,23.9c-1.1,15.1,7.6,26.8,12,30.8
	c-0.5-4,0.4-17.7,0.9-24l-1.2-0.3L45.2,99C46.7,97.9,47.1,95.7,47.1,94.7z"/>
<path class="st3" d="M98.2,58.5c-8.2,12.6-20.3,15.2-25.4,15c-8.8,0-26.9-4.5-29.2-22.7C40.9,28,55.8,19.3,74.5,21.9
	C93.1,24.4,108.5,42.8,98.2,58.5z"/>
<path class="st5" d="M96.8,59.6c5.6-0.7,6.2-9.6,5.2-13.8c-12.9,4.6-44.6-0.5-58.3-3.7c-3.4,4.3-1.9,8.1-0.7,9.5
	C68.8,64.6,92.6,60.1,96.8,59.6z"/>
<path class="st6" d="M98.5,54.2c2-0.9,1.1-4.1,0-3.9C82.6,53.9,56.1,49,54.6,49c-1.5,0-1.7,2.3-0.9,2.9c0.9,0.7,9.1,3,21.8,3.7
	C84.8,56.1,94.7,56,98.5,54.2z"/>
<path class="st3" d="M47.1,85.9l-0.3-13c-13.1-3.2-19.3,2.1-20.7,5.1C35,75.5,43.8,82.2,47.1,85.9z"/>
</svg>
