<?xml version="1.0" encoding="utf-8"?>
<!-- Generator: Adobe Illustrator 24.0.1, SVG Export Plug-In . SVG Version: 6.00 Build 0)  -->
<svg version="1.1" id="Слой_1" xmlns="http://www.w3.org/2000/svg" xmlns:xlink="http://www.w3.org/1999/xlink" x="0px" y="0px"
	 viewBox="0 0 154 147" style="enable-background:new 0 0 154 147;" xml:space="preserve">
<style type="text/css">
	.st0{fill:#D7E3F1;}
	.st1{stroke:#000000;}
	.st2{fill:none;stroke:#000000;stroke-width:1.2;}
	.st3{fill:#FFFFFF;}
	.st4{fill:#FFFFFF;stroke:#000000;stroke-width:1.2;}
	.st5{fill:#75A1D3;}
	.st6{fill:none;stroke:#000000;}
	.st7{fill:none;stroke:#FFFFFF;stroke-width:0.7;}
	.st8{fill:none;stroke:#000000;stroke-width:4;}
	.st9{fill:none;stroke:#000000;stroke-linecap:round;}
</style>
<path class="st0" d="M53.6,80.2c-3.3,2.9-10.4,16.1-14.9,21.5c-3.6,4.3-6.2,7.4-7.8,7.5c-1.7,6.2-4.5,19.7-2.5,23.6
	c2.5,4.9-37.1-23.2-24.4-65.1c12.8-41.9,28.5-26.3,42.1-33.9c24.6-13.7,28.1,8.5,28.5,13.8C76.3,71.7,63.9,76.5,53.6,80.2z"/>
<path class="st1" d="M42.6,62.2c0,5.4,1.6,6.6,0,6.6c0,11.4,1.9,28.3-5.3,39.6c-3.9,6.2-14.3-3.8-14.5-8.3
	c-13,1.6-5.3-12.5-8.7-21.3c-2.7-7.1,4.7-11.3,8.7-12.5c-0.5-1.6-0.5-5.6,3.4-9.4c3.9-3.7,8-0.9,9.6,1
	C38.1,57.2,42.6,56.8,42.6,62.2z"/>
<path class="st2" d="M76.9,89.2c-0.6,0-0.5,1.6-2.3,1.4c-1.8-0.2-1.6,3.3-1.3,5.1"/>
<path class="st3" d="M29.3,82.1c1.5,7.2,5.1,2.3,7.4,1.4c1.8,5.2,2.2,9.8,2.1,13c8.1,0.9,12.4-3.9,13.6-6.5l-7-14.1l6.1-4.6
	c-2-2.2-8.5-3.2-11.4-3.5c-1.4,1.9-4.5,2.2-5.9,2.1c0.4,0.8,1,2.8,0.8,4.6c-0.2,1.9,0.5,3.4,0.8,3.9C33.5,78.2,27.6,74,29.3,82.1z"
	/>
<path class="st2" d="M28.5,120.3c0.4-5.6,2.8-17.3,9.7-19.9c0.3-0.8,0.5-2.2,0.6-3.9 M38.8,96.5c0.2-3.2-0.2-7.8-2.1-13
	c-2.3,0.9-5.9,5.8-7.4-1.4c-1.7-8.1,4.2-3.9,6.6-3.7c-0.4-0.5-1-2.1-0.8-3.9c0.2-1.9-0.5-3.9-0.8-4.6c1.4,0.1,4.6-0.2,5.9-2.1
	c3,0.2,9.4,1.3,11.4,3.5l-6.1,4.6l7,14.1C51.2,92.5,46.9,97.4,38.8,96.5z"/>
<path d="M37.3,72.7c-0.2,0.1-0.3,0.3-0.2,0.5c0.1,0.2,0.3,0.3,0.5,0.2L37.3,72.7z M41,71.6c0.2-0.1,0.3-0.3,0.2-0.5
	c-0.1-0.2-0.3-0.3-0.5-0.2L41,71.6z M37.7,73.4l3.3-1.8l-0.4-0.7l-3.3,1.8L37.7,73.4z"/>
<ellipse transform="matrix(0.9672 -0.2541 0.2541 0.9672 -17.6569 12.6031)" cx="40" cy="74.6" rx="0.4" ry="1.2"/>
<ellipse transform="matrix(0.9536 -0.3011 0.3011 0.9536 -20.2554 16.0208)" cx="41.9" cy="73.7" rx="0.4" ry="1.2"/>
<path class="st2" d="M52.4,90l9.3,12.1"/>
<path class="st2" d="M38.4,117.8c0.6,4.9,4.3,12.5,13.6,3.9c11.7-10.7,7.9-23.6,12.6-24.5c1.6,2.1,5.7,6,9.8,5.1
	c5.1-1.2,4.1,8.1,1.3,8.8c1.3,2.9,2.3,10.1-3.6,16.4"/>
<path class="st2" d="M65.7,98.2c0-1.8,0-5,0.4-5.6c2.6,1.5,4.5,4,7.8,2.8l0.8,7.1"/>
<path class="st2" d="M66.5,92.8c0.2-1.4,0.2-4.6-1.4-9.6c-1.6-4.9,2.8-7.4,5.2-8c3.3-1.9,10.1-5.9,10.8-6.9c0.9-1.1,4.8-1.4,3,2.7
	c-1.4,3.3-5.3,5.2-7.1,5.7"/>
<path class="st2" d="M71.4,76.9c2.3-0.5,7-0.7,7.9,2.4c1.2,3.8-1.2,0.5-5.6,0"/>
<path class="st2" d="M78.1,80.7c1.1,0.9,3,3.1,1.2,5.2c-0.6-1.1-2.3-3.1-4.2-2.9"/>
<path class="st2" d="M79.3,85.5c0.5,1.5,0.7,4.7-2.2,5.4c0-0.9-0.1-2.9-0.7-3.2"/>
<path d="M129.7,40.5c-2.3,0.8,1.8-16.9,4-24.4l13.7,0.5c-0.1,0.4-3.8,16-5.3,24.1C140,40.1,132.7,39.4,129.7,40.5z"/>
<path class="st4" d="M113.5,81.6c-3.6-10.2-6.3-29-7.2-37.1c-6.5,0-16,5.6-19.9,8.5c-0.7,1.5,3.3,24.1,5.4,35.3L113.5,81.6z"/>
<path class="st5" d="M115.1,55.1c-0.2-6.1,5.5-19.1,8.4-24.9l14.7,2.1c0.4-0.1-6.9,26.1-9.7,25.5C126.2,57.4,118.6,55.8,115.1,55.1z
	"/>
<path class="st6" d="M92.8,61.8c1.3-3.6,5-9.9,9.6-5.7c5.7,5.2-1.7,8.6-2.4,4.2c-0.5-3.1,0.5-7.8,5.7-7.3c5.3,0.5,3.8,5.4,2.4,5.7
	c-2.4,0.5-4.8-5.2,2.9-8.9"/>
<path class="st6" d="M93.7,74.3c1.3-3.6,5-9.9,9.6-5.7c5.7,5.2-1.7,8.6-2.4,4.2c-0.5-3.1,0.5-7.8,5.7-7.3c5.3,0.5,3.8,5.4,2.4,5.7
	c-2.4,0.5-4.8-5.2,2.9-8.9"/>
<path class="st7" d="M122.2,36.6c1.5-1.3,4.7-3.1,5.8,0.1c1.4,4.1-2.9,3.5-2.1,1.2c0.5-1.6,2.1-3.5,4.4-1.7c2.3,1.8,0.4,3.6-0.3,3.3
	c-1.2-0.5-0.9-3.8,3.5-3.2"/>
<path class="st7" d="M119.5,42.7c1.5-1.3,4.7-3.1,5.8,0.1c1.4,4.1-2.9,3.5-2.1,1.2c0.5-1.6,2.1-3.5,4.4-1.7c2.3,1.8,0.4,3.6-0.3,3.3
	c-1.2-0.5-0.9-3.8,3.5-3.2"/>
<path class="st7" d="M143.7,20.4c1.2-1,3.7-2.5,4.6,0.1c1.1,3.2-2.3,2.7-1.7,1c0.4-1.2,1.7-2.7,3.5-1.3c1.8,1.4,0.3,2.8-0.2,2.6
	c-1-0.4-0.7-3,2.8-2.6"/>
<path class="st7" d="M134.3,25.2c1.2-1,3.7-2.5,4.6,0.1c1.1,3.2-2.3,2.7-1.7,1c0.4-1.2,1.7-2.7,3.5-1.3c1.8,1.4,0.3,2.8-0.2,2.6
	c-1-0.4-0.7-3,2.8-2.6"/>
<path class="st8" d="M54.1,92.4c-3.2,4.1-7.9,7.3-17.4,6.4"/>
<path class="st9" d="M39.4,79.7c0.4,0.5,1.2,0.7,2.3,0.2"/>
</svg>
