<svg width="30" height="30" viewBox="0 0 30 30" fill="none" xmlns="http://www.w3.org/2000/svg">
<g clip-path="url(#clip0)">
<path d="M15.0051 7.29785C10.7514 7.29785 7.30762 10.7454 7.30762 14.9954C7.30762 19.2491 10.7551 22.6929 15.0051 22.6929C19.2589 22.6929 22.7026 19.2454 22.7026 14.9954C22.7026 10.7416 19.2551 7.29785 15.0051 7.29785ZM15.0051 19.9916C12.2439 19.9916 10.0089 17.7554 10.0089 14.9954C10.0089 12.2354 12.2451 9.9991 15.0051 9.9991C17.7651 9.9991 20.0014 12.2354 20.0014 14.9954C20.0026 17.7554 17.7664 19.9916 15.0051 19.9916Z" fill="white"/>
<path d="M21.1853 0.0942333C18.4253 -0.0345167 11.589 -0.0282667 8.82653 0.0942333C6.39903 0.207983 4.25778 0.794233 2.53153 2.52048C-0.353466 5.40548 0.0152841 9.29298 0.0152841 14.9942C0.0152841 20.8292 -0.309716 24.6267 2.53153 27.468C5.42778 30.363 9.37153 29.9842 15.0053 29.9842C20.7853 29.9842 22.7803 29.988 24.824 29.1967C27.6028 28.118 29.7003 25.6342 29.9053 21.173C30.0353 18.4117 30.0278 11.5767 29.9053 8.81423C29.6578 3.54798 26.8315 0.354233 21.1853 0.0942333ZM25.554 25.5592C23.6628 27.4505 21.039 27.2817 14.969 27.2817C8.71903 27.2817 6.21278 27.3742 4.38403 25.5405C2.27778 23.4442 2.65903 20.078 2.65903 14.9742C2.65903 8.06798 1.95028 3.09423 8.88153 2.73923C10.474 2.68298 10.9428 2.66423 14.9515 2.66423L15.0078 2.70173C21.669 2.70173 26.8953 2.00423 27.209 8.93423C27.2803 10.5155 27.2965 10.9905 27.2965 14.993C27.2953 21.1705 27.4128 23.6917 25.554 25.5592Z" fill="white"/>
<path d="M23.0077 8.79281C24.0012 8.79281 24.8065 7.98748 24.8065 6.99406C24.8065 6.00064 24.0012 5.19531 23.0077 5.19531C22.0143 5.19531 21.209 6.00064 21.209 6.99406C21.209 7.98748 22.0143 8.79281 23.0077 8.79281Z" fill="white"/>
</g>
<defs>
<clipPath id="clip0">
<rect width="30" height="30" fill="white"/>
</clipPath>
</defs>
</svg>
