<svg width="28" height="31" viewBox="0 0 28 31" fill="none" xmlns="http://www.w3.org/2000/svg">
<path d="M13.6901 20.6385C17.4896 20.6385 20.5696 17.5584 20.5696 13.7589C20.5696 9.95947 17.4896 6.87939 13.6901 6.87939C9.89062 6.87939 6.81055 9.95947 6.81055 13.7589C6.81055 17.5584 9.89062 20.6385 13.6901 20.6385Z" fill="black"/>
<path d="M23.3733 4.01018C20.7873 1.42419 17.349 0 13.6918 0C10.0346 0 6.59623 1.42419 4.01024 4.01018C1.42419 6.59629 0 10.0346 0 13.6918C0 20.1438 4.51065 25.7141 10.7769 27.0715L13.6918 30.958L16.6067 27.0714C22.8729 25.714 27.3836 20.1438 27.3836 13.6918C27.3836 10.0346 25.9594 6.59629 23.3733 4.01018ZM13.6918 3.5744C19.2371 3.5744 23.7486 8.08591 23.7486 13.6312C23.7486 19.1765 19.2371 23.688 13.6918 23.688C8.14643 23.688 3.63499 19.1765 3.63499 13.6312C3.63499 8.08591 8.14643 3.5744 13.6918 3.5744Z" fill="black"/>
</svg>
