<svg width="200" height="68" viewBox="0 0 200 68" fill="none" xmlns="http://www.w3.org/2000/svg">
<path d="M0 0V43.2909H30.2862V0H0ZM19.9031 34.7825V31.6999H19.8273C18.1869 33.7454 15.2284 35.2435 11.1511 35.2435C6.20136 35.2435 2.399 33.0828 2.399 26.8023V13.5212H10.4589V24.3055C10.4589 27.8491 11.9381 29.0783 14.6405 29.0783C17.4947 29.0783 19.6661 27.5034 19.6661 24.075V13.5212H27.726L27.7354 34.7825H19.9031Z" fill="white"/>
<path d="M61.3889 25.8899C60.1752 31.863 56.1737 35.2529 47.1276 35.2529C37.9963 35.2529 32.6768 31.6709 32.6768 23.9692C32.6768 16.4212 38.2713 12.6855 47.1276 12.6855C54.8082 12.6855 60.2889 15.0383 61.0096 21.6645H52.7127C52.3334 19.3885 50.655 18.0825 47.2319 18.0825C43.4675 18.0825 41.1823 20.2048 41.1823 23.9788C41.1823 27.7529 43.3917 29.8752 47.2699 29.8752C50.3137 29.8752 52.3334 28.5691 52.8644 25.9091H61.3889V25.8899Z" fill="white"/>
<path d="M77.8942 12.6758C87.2152 12.6758 92.3451 16.5651 92.3451 23.9595C92.3451 31.3539 87.2058 35.2431 77.8942 35.2431C68.5732 35.2431 63.4434 31.3539 63.4434 23.9595C63.4434 16.5651 68.5732 12.6758 77.8942 12.6758ZM71.9584 23.9595C71.9584 27.8871 74.2436 29.8558 77.8942 29.8558C81.5449 29.8558 83.8301 27.8871 83.8301 23.9595C83.8301 20.0318 81.5449 18.0631 77.8942 18.0631C74.2436 18.0631 71.9584 20.0318 71.9584 23.9595Z" fill="white"/>
<path d="M114.381 31.9302H114.305C112.589 34.0525 109.744 35.2433 106.472 35.2433C99.1712 35.2433 94.4111 31.162 94.4111 23.9212C94.4111 17.8713 98.8204 12.9833 106.397 12.9833C109.971 12.9833 112.712 14.174 114.077 16.1811H114.153V6.28027H122.222L122.241 34.8496L114.381 34.84V31.9302ZM108.407 18.6779C104.718 18.6779 102.699 20.5313 102.699 23.998C102.699 27.4648 104.718 29.3182 108.407 29.3182C112.171 29.3182 114.153 27.2343 114.153 23.998C114.144 20.7618 112.171 18.6779 108.407 18.6779Z" fill="white"/>
<path d="M153.229 28.1944C152.243 31.6612 148.327 35.2431 139.537 35.2431C130.254 35.2431 125.086 31.6612 125.086 23.9211C125.086 16.5266 130.756 12.6758 139.309 12.6758C148.137 12.6758 153.608 16.565 153.608 25.2751V25.8897H133.373C133.791 28.5882 135.697 30.5472 139.84 30.5472C142.429 30.5472 143.756 29.4333 144.705 28.1944H153.229ZM145.321 21.6451C144.866 19.3308 143.15 17.3717 139.347 17.3717C135.545 17.3717 133.829 19.3404 133.373 21.6451H145.321Z" fill="white"/>
<path d="M69.9512 47.4688H73.488V62.9586H69.9512V47.4688Z" fill="white"/>
<path d="M80.2873 50.3881H75.3945V47.4688H88.7265V50.3881H83.8337V62.9586H80.2968V50.3881H80.2873Z" fill="white"/>
<path d="M106.97 56.1685V62.9579H103.784V61.479C103.149 62.5642 101.926 63.1404 100.2 63.1404C97.45 63.1404 95.8096 61.5942 95.8096 59.5392C95.8096 57.4361 97.2698 55.9764 100.854 55.9764H103.566C103.566 54.4975 102.694 53.6333 100.854 53.6333C99.6119 53.6333 98.3224 54.0558 97.469 54.7376L96.2457 52.3272C97.5353 51.3957 99.4318 50.8868 101.319 50.8868C104.894 50.8772 106.97 52.5577 106.97 56.1685ZM103.566 59.1935V57.9835H101.224C99.6309 57.9835 99.1283 58.5789 99.1283 59.3759C99.1283 60.2402 99.849 60.8164 101.053 60.8164C102.191 60.8164 103.168 60.2786 103.566 59.1935Z" fill="white"/>
<path d="M109.312 57.0047C109.312 53.4228 112.042 50.8779 115.864 50.8779C118.329 50.8779 120.273 51.9631 121.126 53.9125L118.481 55.353C117.846 54.2294 116.907 53.7108 115.835 53.7108C114.11 53.7108 112.754 54.9304 112.754 57.0047C112.754 59.079 114.11 60.2986 115.835 60.2986C116.907 60.2986 117.846 59.8088 118.481 58.6661L121.126 60.1257C120.273 62.0272 118.329 63.1315 115.864 63.1315C112.042 63.1315 109.312 60.5963 109.312 57.0047Z" fill="white"/>
<path d="M133.499 56.1685V62.9579H130.313V61.479C129.678 62.5642 128.455 63.1404 126.729 63.1404C123.979 63.1404 122.339 61.5942 122.339 59.5392C122.339 57.4361 123.799 55.9764 127.383 55.9764H130.095C130.095 54.4975 129.223 53.6333 127.383 53.6333C126.141 53.6333 124.852 54.0558 123.998 54.7376L122.775 52.3272C124.065 51.3957 125.961 50.8868 127.848 50.8868C131.423 50.8772 133.499 52.5577 133.499 56.1685ZM130.095 59.1935V57.9835H127.753C126.16 57.9835 125.658 58.5789 125.658 59.3759C125.658 60.2402 126.378 60.8164 127.583 60.8164C128.72 60.8164 129.697 60.2786 130.095 59.1935Z" fill="white"/>
<path d="M148.691 46.5371V62.9585H145.438V61.5852C144.585 62.6223 143.343 63.1313 141.769 63.1313C138.45 63.1313 135.89 60.7401 135.89 57.0045C135.89 53.2689 138.45 50.8777 141.769 50.8777C143.21 50.8777 144.433 51.3387 145.287 52.3182V46.5467H148.691V46.5371ZM145.343 57.0045C145.343 54.9494 144.035 53.7106 142.347 53.7106C140.64 53.7106 139.332 54.9494 139.332 57.0045C139.332 59.0596 140.64 60.2984 142.347 60.2984C144.035 60.308 145.343 59.0692 145.343 57.0045Z" fill="white"/>
<path d="M163.295 57.9842H154.4C154.732 59.4631 155.974 60.3754 157.767 60.3754C159.009 60.3754 159.909 60.0009 160.715 59.223L162.527 61.2109C161.436 62.4689 159.796 63.1315 157.672 63.1315C153.604 63.1315 150.968 60.5387 150.968 57.0047C150.968 53.442 153.651 50.8779 157.236 50.8779C160.687 50.8779 163.352 53.2211 163.352 57.0527C163.352 57.3216 163.314 57.6961 163.295 57.9842ZM154.353 55.9676H160.147C159.909 54.4599 158.791 53.49 157.264 53.49C155.709 53.49 154.599 54.4407 154.353 55.9676Z" fill="white"/>
<path d="M185.493 56.1404V62.9587H182.089V56.6782C182.089 54.7576 181.235 53.8645 179.86 53.8645C178.334 53.8645 177.262 54.8632 177.262 56.9855V62.9587H173.858V56.6782C173.858 54.7576 173.052 53.8645 171.63 53.8645C170.122 53.8645 169.051 54.8632 169.051 56.9855V62.9587H165.646V51.0508H168.899V52.424C169.771 51.4061 171.08 50.8779 172.587 50.8779C174.228 50.8779 175.622 51.5213 176.456 52.8274C177.395 51.6078 178.922 50.8779 180.695 50.8779C183.482 50.8779 185.493 52.5201 185.493 56.1404Z" fill="white"/>
<path d="M200.001 51.0506L194.691 63.6883C193.553 66.5693 191.941 67.424 189.817 67.424C188.613 67.424 187.304 67.0302 186.536 66.3388L187.778 63.8804C188.3 64.3414 189.02 64.6295 189.703 64.6295C190.642 64.6295 191.163 64.2069 191.628 63.1506L191.675 63.0353L186.584 51.041H190.101L193.401 59.1173L196.72 51.041H200.001V51.0506Z" fill="white"/>
</svg>
