<svg width="13" height="14" viewBox="0 0 13 14" fill="none" xmlns="http://www.w3.org/2000/svg">
<path d="M6.19314 9.33355C7.91136 9.33355 9.30425 7.94066 9.30425 6.22244C9.30425 4.50422 7.91136 3.11133 6.19314 3.11133C4.47492 3.11133 3.08203 4.50422 3.08203 6.22244C3.08203 7.94066 4.47492 9.33355 6.19314 9.33355Z" fill="white"/>
<path d="M10.57 1.81351C9.40058 0.644055 7.84567 0 6.19178 0C4.53789 0 2.98299 0.644055 1.81353 1.81351C0.644055 2.98301 0 4.53789 0 6.19178C0 9.10956 2.03984 11.6286 4.87362 12.2424L6.19178 14L7.50997 12.2424C10.3437 11.6285 12.3836 9.10956 12.3836 6.19178C12.3836 4.53789 11.7395 2.98301 10.57 1.81351ZM6.19178 1.61644C8.69954 1.61644 10.7397 3.65666 10.7397 6.16438C10.7397 8.67211 8.69954 10.7123 6.19178 10.7123C3.68403 10.7123 1.64384 8.67211 1.64384 6.16438C1.64384 3.65666 3.68403 1.61644 6.19178 1.61644Z" fill="white"/>
</svg>
