<svg width="36" height="36" viewBox="0 0 36 36" fill="none" xmlns="http://www.w3.org/2000/svg">
<g clip-path="url(#clip0)">
<path d="M35.2039 8.89352L35.2489 9.18752C34.8139 7.64402 33.6394 6.45302 32.1469 6.01952L32.1154 6.01202C29.3089 5.25002 18.0154 5.25002 18.0154 5.25002C18.0154 5.25002 6.75044 5.23502 3.91544 6.01202C2.39444 6.45302 1.21844 7.64402 0.790941 9.15602L0.783441 9.18752C-0.265059 14.664 -0.272559 21.2445 0.829941 27.108L0.783441 26.811C1.21844 28.3545 2.39294 29.5455 3.88544 29.979L3.91694 29.9865C6.72044 30.75 18.0169 30.75 18.0169 30.75C18.0169 30.75 29.2804 30.75 32.1169 29.9865C33.6394 29.5455 34.8154 28.3545 35.2429 26.8425L35.2504 26.811C35.7274 24.264 36.0004 21.333 36.0004 18.339C36.0004 18.2295 36.0004 18.1185 35.9989 18.0075C36.0004 17.9055 36.0004 17.784 36.0004 17.6625C36.0004 14.667 35.7274 11.736 35.2039 8.89352ZM14.4124 23.4765V12.537L23.8114 18.015L14.4124 23.4765Z" fill="white"/>
</g>
<defs>
<clipPath id="clip0">
<rect width="36" height="36" fill="white"/>
</clipPath>
</defs>
</svg>
